<svg width="219" height="68" viewBox="0 0 219 68" fill="none" xmlns="http://www.w3.org/2000/svg">
<path d="M5.628 52L26.108 7.2H30.78L51.26 52H46.268L27.452 9.952H29.372L10.556 52H5.628ZM13.692 40.032L15.1 36.192H41.148L42.556 40.032H13.692ZM75.055 52.32C72.1537 52.32 69.5297 51.6587 67.183 50.336C64.8363 48.9707 62.959 47.0293 61.551 44.512C60.1857 41.952 59.503 38.8373 59.503 35.168C59.503 31.4987 60.1857 28.4053 61.551 25.888C62.9163 23.328 64.7723 21.3867 67.119 20.064C69.4657 18.7413 72.111 18.08 75.055 18.08C78.255 18.08 81.1137 18.8053 83.631 20.256C86.191 21.664 88.1963 23.6693 89.647 26.272C91.0977 28.832 91.823 31.7973 91.823 35.168C91.823 38.5813 91.0977 41.568 89.647 44.128C88.1963 46.688 86.191 48.6933 83.631 50.144C81.1137 51.5947 78.255 52.32 75.055 52.32ZM57.711 64.416V18.4H62.063V28.512L61.615 35.232L62.255 42.016V64.416H57.711ZM74.735 48.288C77.1243 48.288 79.2577 47.7547 81.135 46.688C83.0123 45.5787 84.5057 44.0427 85.615 42.08C86.7243 40.0747 87.279 37.7707 87.279 35.168C87.279 32.5653 86.7243 30.2827 85.615 28.32C84.5057 26.3573 83.0123 24.8213 81.135 23.712C79.2577 22.6027 77.1243 22.048 74.735 22.048C72.3457 22.048 70.191 22.6027 68.271 23.712C66.3937 24.8213 64.9003 26.3573 63.791 28.32C62.7243 30.2827 62.191 32.5653 62.191 35.168C62.191 37.7707 62.7243 40.0747 63.791 42.08C64.9003 44.0427 66.3937 45.5787 68.271 46.688C70.191 47.7547 72.3457 48.288 74.735 48.288Z" fill="white"/>
<path d="M140.836 52V4.512H145.38V52H140.836ZM158.024 52V4.512H162.568V52H158.024ZM188.907 52.32C185.664 52.32 182.742 51.5947 180.139 50.144C177.579 48.6507 175.552 46.624 174.059 44.064C172.566 41.4613 171.819 38.496 171.819 35.168C171.819 31.7973 172.566 28.832 174.059 26.272C175.552 23.712 177.579 21.7067 180.139 20.256C182.699 18.8053 185.622 18.08 188.907 18.08C192.235 18.08 195.179 18.8053 197.739 20.256C200.342 21.7067 202.368 23.712 203.819 26.272C205.312 28.832 206.059 31.7973 206.059 35.168C206.059 38.496 205.312 41.4613 203.819 44.064C202.368 46.624 200.342 48.6507 197.739 50.144C195.136 51.5947 192.192 52.32 188.907 52.32ZM188.907 48.288C191.339 48.288 193.494 47.7547 195.371 46.688C197.248 45.5787 198.72 44.0427 199.787 42.08C200.896 40.0747 201.451 37.7707 201.451 35.168C201.451 32.5227 200.896 30.2187 199.787 28.256C198.72 26.2933 197.248 24.7787 195.371 23.712C193.494 22.6027 191.36 22.048 188.971 22.048C186.582 22.048 184.448 22.6027 182.571 23.712C180.694 24.7787 179.2 26.2933 178.091 28.256C176.982 30.2187 176.427 32.5227 176.427 35.168C176.427 37.7707 176.982 40.0747 178.091 42.08C179.2 44.0427 180.694 45.5787 182.571 46.688C184.448 47.7547 186.56 48.288 188.907 48.288Z" fill="white"/>
<path d="M116.269 15.2196C119.572 15.694 122.698 17.0092 125.347 19.039L124.4 20.2759C121.963 18.4085 119.087 17.1985 116.048 16.762L116.269 15.2196Z" fill="white"/>
<path d="M128.049 21.5493C128.906 22.5114 129.665 23.556 130.315 24.6679L128.97 25.4545C128.371 24.4315 127.673 23.4705 126.885 22.5854L128.049 21.5493Z" fill="white"/>
<path d="M132.075 28.636C132.462 29.8642 132.727 31.1279 132.866 32.4084L131.316 32.5757C131.189 31.3976 130.945 30.2351 130.589 29.1051L132.075 28.636Z" fill="white"/>
<path d="M132.945 35.6303C132.746 39.0544 131.647 42.3652 129.758 45.228L128.457 44.3698C130.195 41.736 131.207 38.69 131.39 35.5399L132.945 35.6303Z" fill="white"/>
<path d="M113.277 15.0674C110.038 15.1185 106.863 15.9767 104.039 17.5642C101.215 19.1517 98.8317 21.4185 97.1047 24.1593C95.3777 26.9001 94.3616 30.0284 94.1483 33.2609C93.935 36.4934 94.5313 39.728 95.8832 42.6719C97.2352 45.6159 99.3 48.1761 101.891 50.1209C104.482 52.0657 107.517 53.3337 110.721 53.8099C113.925 54.2861 117.198 53.9556 120.242 52.8483C123.286 51.741 126.007 49.8919 128.156 47.4684L126.991 46.4344C125.013 48.664 122.51 50.3652 119.709 51.3839C116.909 52.4026 113.898 52.7067 110.95 52.2686C108.002 51.8304 105.21 50.6639 102.826 48.8747C100.443 47.0855 98.5431 44.7301 97.2993 42.0216C96.0556 39.3132 95.5069 36.3373 95.7032 33.3635C95.8994 30.3896 96.8342 27.5116 98.4231 24.99C100.012 22.4685 102.205 20.3831 104.803 18.9225C107.4 17.462 110.322 16.6725 113.302 16.6255L113.277 15.0674Z" fill="white"/>
<path fill-rule="evenodd" clip-rule="evenodd" d="M113.484 20.3752C113.531 20.3752 113.578 20.3755 113.625 20.3759V34.4841H111.272V35.6607V48.4401C109.109 48.0997 107.109 47.2681 105.39 46.0629V22.9247C107.681 21.3181 110.473 20.3752 113.484 20.3752ZM113.39 35.6607V48.6121C113.421 48.6123 113.453 48.6124 113.484 48.6124C116.516 48.6124 119.325 47.6565 121.626 46.0298V22.9578C119.909 21.7436 117.908 20.9031 115.743 20.555V34.4841V35.6607L113.39 35.6607ZM127.603 34.4938C127.603 38.2501 126.136 41.6637 123.744 44.1932V24.7944C126.136 27.3239 127.603 30.7375 127.603 34.4938ZM103.272 24.7449C100.852 27.2792 99.3656 30.713 99.3656 34.4938C99.3656 38.2746 100.852 41.7084 103.272 44.2427V24.7449Z" fill="white"/>
</svg>
