<svg width="65" height="65" viewBox="0 0 65 65" fill="none" xmlns="http://www.w3.org/2000/svg">
<path fill-rule="evenodd" clip-rule="evenodd" d="M32.5 62.8571C49.2658 62.8571 62.8571 49.2658 62.8571 32.5C62.8571 15.7342 49.2658 2.14286 32.5 2.14286C15.7342 2.14286 2.14286 15.7342 2.14286 32.5C2.14286 49.2658 15.7342 62.8571 32.5 62.8571ZM32.5 65C50.4493 65 65 50.4493 65 32.5C65 14.5507 50.4493 0 32.5 0C14.5507 0 0 14.5507 0 32.5C0 50.4493 14.5507 65 32.5 65Z" fill="white"/>
<path d="M45.3261 16.6257C45.6381 16.3016 46.1684 16.3432 46.4261 16.712L49.8294 21.5822C49.9874 21.8083 50.0765 22.0753 50.0861 22.3509L50.3653 30.4025C50.4114 31.7308 48.7775 32.3967 47.882 31.4145L39.7126 22.4551L45.3261 16.6257Z" fill="white"/>
<path d="M19.7453 16.6971C19.4333 16.373 18.903 16.4147 18.6453 16.7834L15.2421 21.6536C15.0841 21.8797 14.9949 22.1467 14.9854 22.4224L14.7061 30.4739C14.66 31.8022 16.2939 32.4681 17.1894 31.486L25.3588 22.5266L19.7453 16.6971Z" fill="white"/>
<path d="M11.5714 41.8571C11.5714 30.2986 20.9415 20.9286 32.5 20.9286C44.0585 20.9286 53.4286 30.2986 53.4286 41.8571V44.6815C53.4286 45.5247 53.0073 46.3122 52.3059 46.7802L49.0744 48.9363C45.137 51.5634 40.6253 53.2047 35.9202 53.7215C33.8026 53.9541 31.6661 53.9567 29.5479 53.7292L29.4375 53.7173C24.6491 53.203 20.0504 51.5631 16.017 48.9316L12.7502 46.8002C12.0148 46.3204 11.5714 45.5017 11.5714 44.6237V41.8571Z" fill="white"/>
<path d="M28 36.1429C28 37.7208 26.7208 39 25.1429 39C23.5649 39 22.2857 37.7208 22.2857 36.1429C22.2857 34.5649 23.5649 33.2857 25.1429 33.2857C26.7208 33.2857 28 34.5649 28 36.1429Z" fill="black"/>
<path d="M42.7143 36.1429C42.7143 37.7208 41.4351 39 39.8571 39C38.2792 39 37 37.7208 37 36.1429C37 34.5649 38.2792 33.2857 39.8571 33.2857C41.4351 33.2857 42.7143 34.5649 42.7143 36.1429Z" fill="black"/>
<path d="M32.0054 43.5504C32.2914 43.9219 32.8515 43.9219 33.1374 43.5504L34.1605 42.2214C34.5221 41.7517 34.1873 41.0714 33.5945 41.0714H31.5483C30.9556 41.0714 30.6208 41.7517 30.9823 42.2214L32.0054 43.5504Z" fill="black"/>
<path d="M15.2417 55.5323C15.9185 54.2512 17.447 53.6795 18.7984 54.202L22.9365 55.8021C23.9498 56.1939 25.0139 56.4393 26.0965 56.5307L31.5252 56.9891C32.1739 57.0439 32.8261 57.0431 33.4746 56.9869L38.6495 56.5379C39.7582 56.4417 40.8469 56.1841 41.8811 55.7733L46.0125 54.132C47.2572 53.6375 48.6783 54.074 49.4308 55.1819L50.7143 57.0714L46.0714 60.5714L40.3214 62.8214L32.5 63.5L24.4643 62.8214L18.8571 60.5714L14.4286 57.0714L15.2417 55.5323Z" fill="white"/>
</svg>
